<svg width="22" height="22" viewBox="0 0 22 22" fill="none" xmlns="http://www.w3.org/2000/svg">
<path d="M2.75 20.8148V16.5H1.375C0.616917 16.5 0 15.8831 0 15.125V3.20834C0 2.45026 0.616917 1.83334 1.375 1.83334H20.625C21.3831 1.83334 22 2.45026 22 3.20834V15.125C22 15.8831 21.3831 16.5 20.625 16.5H7.06475L2.75 20.8148ZM1.375 2.75001C1.122 2.75001 0.916667 2.95534 0.916667 3.20834V15.125C0.916667 15.378 1.122 15.5833 1.375 15.5833H3.66667V18.6019L6.68525 15.5833H20.625C20.878 15.5833 21.0833 15.378 21.0833 15.125V3.20834C21.0833 2.95534 20.878 2.75001 20.625 2.75001H1.375Z" fill="#B99F75"/>
<path d="M7.33335 10.0833C7.83961 10.0833 8.25002 9.67293 8.25002 9.16667C8.25002 8.66041 7.83961 8.25 7.33335 8.25C6.82709 8.25 6.41669 8.66041 6.41669 9.16667C6.41669 9.67293 6.82709 10.0833 7.33335 10.0833Z" fill="#B99F75"/>
<path d="M14.6667 10.0833C15.1729 10.0833 15.5833 9.67293 15.5833 9.16667C15.5833 8.66041 15.1729 8.25 14.6667 8.25C14.1604 8.25 13.75 8.66041 13.75 9.16667C13.75 9.67293 14.1604 10.0833 14.6667 10.0833Z" fill="#B99F75"/>
<path d="M11 10.0833C11.5062 10.0833 11.9166 9.67293 11.9166 9.16667C11.9166 8.66041 11.5062 8.25 11 8.25C10.4937 8.25 10.0833 8.66041 10.0833 9.16667C10.0833 9.67293 10.4937 10.0833 11 10.0833Z" fill="#B99F75"/>
</svg>
