<svg width="22" height="22" viewBox="0 0 22 22" fill="none" xmlns="http://www.w3.org/2000/svg">
<path d="M11 21.01C8.42873 21.01 6.01217 20.009 4.19442 18.1906C1.22305 15.2199 0.516984 10.7147 2.43855 6.98157C2.61248 6.64401 3.02636 6.51132 3.36461 6.68457C3.70286 6.85782 3.83555 7.27239 3.66161 7.61063C2.01436 10.8103 2.61936 14.6713 5.16655 17.2184C6.72442 18.777 8.79586 19.635 11 19.635C13.2034 19.635 15.2755 18.777 16.8334 17.2184C18.3913 15.6599 19.25 13.5884 19.25 11.385C19.25 9.18088 18.392 7.10945 16.8334 5.55157C15.2749 3.9937 13.2041 3.13501 11 3.13501C8.79586 3.13501 6.72442 3.9937 5.16655 5.55157C4.89773 5.82038 4.46323 5.82038 4.19442 5.55157C3.92561 5.28276 3.92561 4.84826 4.19442 4.57945C6.01217 2.7617 8.42873 1.76001 11 1.76001C13.5712 1.76001 15.9885 2.7617 17.8055 4.57945C19.624 6.3972 20.625 8.81376 20.625 11.385C20.625 13.9556 19.624 16.3728 17.8055 18.1906C15.9885 20.009 13.5712 21.01 11 21.01Z" fill="#B99F75"/>
<path d="M14.4368 14.8225C14.2862 14.8225 14.135 14.7737 14.0078 14.6719L10.5703 11.9219C10.4074 11.7913 10.3125 11.594 10.3125 11.385V5.88501C10.3125 5.50551 10.6205 5.19751 11 5.19751C11.3795 5.19751 11.6875 5.50551 11.6875 5.88501V11.055L14.8672 13.5981C15.1635 13.8359 15.2116 14.2684 14.9744 14.5647C14.8383 14.7338 14.6389 14.8225 14.4368 14.8225Z" fill="#B99F75"/>
</svg>
