<svg width="37" height="37" viewBox="0 0 37 37" fill="none" xmlns="http://www.w3.org/2000/svg">
<path d="M18.025 0.878418C8.07008 0.878418 0 8.96239 0 18.9312C0 28.9015 8.07008 36.9825 18.025 36.9825C27.9799 36.9825 36.05 28.9015 36.05 18.9312C36.05 8.96239 27.9792 0.878418 18.025 0.878418ZM22.7953 18.8557H19.6742C19.6742 23.8511 19.6742 30.004 19.6742 30.004H15.048C15.048 30.004 15.048 23.9141 15.048 18.8557H12.8477V14.9196H15.048V12.3691C15.048 10.5437 15.9132 7.69412 19.7173 7.69412L23.143 7.70731V11.5305C23.143 11.5305 21.0598 11.5305 20.6557 11.5305C20.2495 11.5305 19.6749 11.7335 19.6749 12.6015V14.9204H23.2016L22.7953 18.8557Z" fill="#B99F75"/>
</svg>
