<svg width="37" height="38" viewBox="0 0 37 38" fill="none" xmlns="http://www.w3.org/2000/svg">
<path fill-rule="evenodd" clip-rule="evenodd" d="M18.5334 0.943359C28.4762 0.943359 36.5484 9.02774 36.5484 18.9854C36.5484 28.943 28.4762 37.0274 18.5334 37.0274C8.5907 37.0274 0.518433 28.943 0.518433 18.9854C0.518433 9.02774 8.5907 0.943359 18.5334 0.943359ZM18.5334 7.70912C15.4756 7.70912 15.0921 7.72208 13.8912 7.77699C12.6928 7.83175 11.8743 8.02239 11.158 8.30112C10.4177 8.5893 9.78975 8.97488 9.1638 9.60177C8.53785 10.2287 8.15285 10.8575 7.8651 11.599C7.58679 12.3162 7.3965 13.136 7.34175 14.3362C7.28701 15.5389 7.27406 15.923 7.27406 18.9854C7.27406 22.0478 7.28701 22.4318 7.34175 23.6346C7.3965 24.8348 7.58679 25.6545 7.8651 26.3718C8.15285 27.1132 8.53785 27.7421 9.1638 28.3691C9.78975 28.996 10.4177 29.3815 11.158 29.6697C11.8743 29.9484 12.6928 30.139 13.8912 30.1938C15.0921 30.2487 15.4756 30.2616 18.5334 30.2616C21.5913 30.2616 21.9747 30.2487 23.1757 30.1938C24.3741 30.139 25.1926 29.9484 25.9087 29.6697C26.6491 29.3815 27.277 28.996 27.9031 28.3691C28.529 27.7421 28.914 27.1132 29.2018 26.3718C29.48 25.6545 29.6704 24.8348 29.725 23.6346C29.7799 22.4318 29.7928 22.0478 29.7928 18.9854C29.7928 15.923 29.7799 15.5389 29.725 14.3362C29.6704 13.136 29.48 12.3162 29.2018 11.599C28.914 10.8575 28.529 10.2287 27.9031 9.60177C27.277 8.97488 26.6491 8.5893 25.9087 8.30112C25.1926 8.02239 24.3741 7.83175 23.1757 7.77699C21.9747 7.72208 21.5913 7.70912 18.5334 7.70912ZM18.5334 9.74089C21.5398 9.74089 21.8959 9.75238 23.0832 9.80664C24.181 9.85682 24.7771 10.0405 25.1739 10.1949C25.6995 10.3994 26.0745 10.6438 26.4685 11.0384C26.8626 11.433 27.1065 11.8087 27.3107 12.335C27.4649 12.7323 27.6484 13.3293 27.6984 14.4288C27.7526 15.6179 27.7641 15.9745 27.7641 18.9854C27.7641 21.9963 27.7526 22.3529 27.6984 23.542C27.6484 24.6414 27.4649 25.2384 27.3107 25.6358C27.1065 26.1622 26.8626 26.5378 26.4685 26.9323C26.0745 27.327 25.6995 27.5713 25.1739 27.7759C24.7771 27.9303 24.181 28.114 23.0832 28.1641C21.8961 28.2184 21.54 28.2299 18.5334 28.2299C15.5268 28.2299 15.1708 28.2184 13.9837 28.1641C12.8859 28.114 12.2898 27.9303 11.893 27.7759C11.3674 27.5713 10.9923 27.327 10.5983 26.9323C10.2043 26.5378 9.96033 26.1622 9.75612 25.6358C9.60193 25.2384 9.41848 24.6414 9.36837 23.542C9.31419 22.3529 9.30279 21.9963 9.30279 18.9854C9.30279 15.9745 9.31419 15.6179 9.36837 14.4288C9.41848 13.3293 9.60193 12.7323 9.75612 12.335C9.96033 11.8087 10.2043 11.433 10.5983 11.0384C10.9923 10.6438 11.3674 10.3994 11.893 10.1949C12.2898 10.0405 12.8859 9.85682 13.9837 9.80664C15.171 9.75238 15.527 9.74089 18.5334 9.74089ZM18.5334 13.1949C15.3402 13.1949 12.7516 15.7874 12.7516 18.9854C12.7516 22.1834 15.3402 24.7759 18.5334 24.7759C21.7267 24.7759 24.3153 22.1834 24.3153 18.9854C24.3153 15.7874 21.7267 13.1949 18.5334 13.1949ZM18.5334 22.7441C16.4607 22.7441 14.7803 21.0613 14.7803 18.9854C14.7803 16.9095 16.4607 15.2267 18.5334 15.2267C20.6062 15.2267 22.2865 16.9095 22.2865 18.9854C22.2865 21.0613 20.6062 22.7441 18.5334 22.7441ZM25.8949 12.9661C25.8949 13.7134 25.2899 14.3192 24.5437 14.3192C23.7975 14.3192 23.1926 13.7134 23.1926 12.9661C23.1926 12.2188 23.7975 11.613 24.5437 11.613C25.2899 11.613 25.8949 12.2188 25.8949 12.9661Z" fill="#B99F75"/>
</svg>
