<svg width="22" height="22" viewBox="0 0 22 22" fill="none" xmlns="http://www.w3.org/2000/svg">
<path d="M11 19L10.7155 18.7321C4.24267 13.067 2.5 11.0766 2.5 7.82296C2.5 5.14354 4.52719 3 6.98117 3C9.04393 3 10.2176 4.26315 11 5.22009C11.7824 4.26315 12.9561 3 15.0188 3C17.5084 3 19.5 5.18182 19.5 7.82296C19.5 11.0766 17.7573 13.067 11.2845 18.7321L11 19ZM6.98117 3.99521C5.0251 3.99521 3.42468 5.7177 3.42468 7.82296C3.42468 10.6172 5.06067 12.4545 11 17.6986C16.9393 12.4545 18.5753 10.6172 18.5753 7.82296C18.5753 5.7177 16.9749 3.99521 15.0188 3.99521C13.2406 3.99521 12.2803 5.14354 11.5335 6.0622L11 6.71292L10.4665 6.0622C9.71966 5.14354 8.75941 3.99521 6.98117 3.99521Z" fill="#B99F75"/>
</svg>
