<svg width="20" height="20" viewBox="0 0 20 20" fill="none" xmlns="http://www.w3.org/2000/svg">
<path d="M19.0153 18.2038L14.6073 13.7959H14.5599C15.9185 12.1939 16.6051 10.1287 16.476 8.03214C16.3469 5.93559 15.4121 3.97017 13.8672 2.54701C12.3223 1.12384 10.2869 0.353186 8.18683 0.396243C6.08675 0.4393 4.08467 1.29274 2.59938 2.77803C1.11409 4.26331 0.26065 6.2654 0.217593 8.36547C0.174536 10.4655 0.945194 12.5009 2.36836 14.0459C3.79152 15.5908 5.75694 16.5256 7.85349 16.6546C9.95004 16.7837 12.0153 16.0972 13.6173 14.7385C13.6173 14.7385 13.6173 14.7724 13.6173 14.786L18.0252 19.1939C18.0882 19.2575 18.1632 19.3079 18.2459 19.3424C18.3285 19.3768 18.4172 19.3945 18.5067 19.3945C18.5962 19.3945 18.6848 19.3768 18.7675 19.3424C18.8501 19.3079 18.9251 19.2575 18.9882 19.1939C19.0577 19.1324 19.1138 19.0572 19.1531 18.9731C19.1924 18.8889 19.214 18.7976 19.2165 18.7048C19.2191 18.6119 19.2025 18.5196 19.1679 18.4334C19.1333 18.3473 19.0813 18.2691 19.0153 18.2038V18.2038ZM8.36162 15.2946C7.02037 15.2946 5.70925 14.8969 4.59404 14.1517C3.47884 13.4066 2.60964 12.3474 2.09637 11.1083C1.58309 9.86914 1.4488 8.50562 1.71046 7.19014C1.97213 5.87467 2.618 4.66633 3.5664 3.71792C4.51481 2.76952 5.72315 2.12365 7.03862 1.86199C8.3541 1.60032 9.71762 1.73462 10.9568 2.24789C12.1959 2.76116 13.255 3.63036 14.0002 4.74556C14.7454 5.86077 15.1431 7.17189 15.1431 8.51314C15.1431 9.40369 14.9677 10.2855 14.6269 11.1083C14.2861 11.9311 13.7866 12.6786 13.1568 13.3084C12.5271 13.9381 11.7795 14.4376 10.9568 14.7784C10.134 15.1192 9.25217 15.2946 8.36162 15.2946V15.2946Z" fill="#B99F75"/>
</svg>
